<svg data-v-fde0c5aa="" xmlns="http://www.w3.org/2000/svg" viewBox="0 0 300 300" class="iconAbove"><!----><defs data-v-fde0c5aa=""><!----></defs><rect data-v-fde0c5aa="" fill="#2F3A94" x="0" y="0" width="300px" height="300px" class="logo-background-square"></rect><defs data-v-fde0c5aa=""><!----></defs><g data-v-fde0c5aa="" id="9a5af25a-9146-460e-bc8e-853661f8890e" fill="#ffffff" transform="matrix(1.9779381959318878,0,0,1.9779381959318878,17.50779789198891,173.27082391388078)"><path d="M8.40 5.68C8.40 8.43 6.96 10.05 4.33 10.05L1.76 10.05L1.76 1.53L4.13 1.53C6.66 1.53 8.40 2.87 8.40 5.68ZM8.90 5.67C8.90 2.58 6.92 1.09 4.16 1.09L1.26 1.09L1.26 10.50L4.35 10.50C7.20 10.50 8.90 8.81 8.90 5.67ZM17.05 10.22L16.49 10.22C16.04 10.22 15.93 10.00 15.93 9.60L15.93 5.54C15.93 3.93 15.08 3.14 13.44 3.14C11.89 3.14 11.07 3.86 10.91 5.05L11.40 5.10C11.58 4.00 12.22 3.54 13.43 3.54C14.81 3.54 15.44 4.21 15.44 5.60L15.44 6.33L13.73 6.33C11.76 6.33 10.58 7.07 10.58 8.57C10.58 9.79 11.37 10.64 12.85 10.64C14.20 10.64 15.08 10.01 15.44 8.83L15.44 9.63C15.44 10.22 15.65 10.64 16.39 10.64C16.69 10.64 16.93 10.63 17.05 10.61ZM12.85 10.23C11.70 10.23 11.06 9.56 11.06 8.55C11.06 7.25 12.10 6.72 13.86 6.72L15.44 6.72L15.44 7.03C15.44 8.82 14.66 10.23 12.85 10.23ZM21.70 3.71L21.70 3.22L21.48 3.22C20.43 3.22 19.60 4.00 19.36 4.98C19.38 4.30 19.35 3.77 19.33 3.28L18.87 3.28C18.89 3.79 18.90 4.51 18.90 5.03L18.90 10.50L19.39 10.50L19.39 6.06C19.39 5.01 20.10 3.71 21.43 3.71ZM26.42 3.71L26.42 3.22L26.19 3.22C25.14 3.22 24.32 4.00 24.08 4.98C24.09 4.30 24.07 3.77 24.05 3.28L23.59 3.28C23.60 3.79 23.62 4.51 23.62 5.03L23.62 10.50L24.11 10.50L24.11 6.06C24.11 5.01 24.82 3.71 26.15 3.71ZM30.60 10.64C32.26 10.64 32.82 9.97 33.31 8.99L32.86 8.85C32.41 9.74 31.95 10.22 30.62 10.22C28.87 10.22 28.13 8.86 28.13 7.04L28.13 6.93L33.39 6.93C33.39 6.89 33.40 6.57 33.40 6.52C33.40 4.68 32.83 3.14 30.59 3.14C28.85 3.14 27.61 4.21 27.61 6.87C27.61 9.17 28.55 10.64 30.60 10.64ZM30.59 3.54C32.21 3.54 32.89 4.62 32.89 6.37L32.89 6.51L28.13 6.51C28.17 4.33 29.27 3.54 30.59 3.54ZM40.43 10.50L40.91 10.50L40.91 5.60C40.91 3.72 39.90 3.14 38.56 3.14C37.24 3.14 36.39 3.98 36.13 5.07L36.11 3.28L35.66 3.28C35.69 4.07 35.69 4.42 35.69 5.03L35.69 10.50L36.16 10.50L36.16 6.43C36.16 4.55 37.16 3.56 38.46 3.56C39.58 3.56 40.43 4.05 40.43 5.66ZM50.20 10.64C51.97 10.64 53.20 9.94 54.03 9.24L54.03 5.85L50.34 5.85L50.34 6.30L53.54 6.30L53.54 9.07C52.89 9.60 51.81 10.19 50.23 10.19C47.36 10.19 46.10 8.30 46.10 5.67C46.10 3.09 47.45 1.37 50.01 1.37C51.79 1.37 52.78 2.10 53.34 3.21L53.82 3.05C53.27 1.89 52.22 0.95 50.01 0.95C47.11 0.95 45.60 2.90 45.60 5.67C45.60 8.64 47.10 10.64 50.20 10.64ZM56.69 10.50L57.18 10.50L57.18 3.28L56.69 3.28ZM56.62 1.39L57.25 1.39L57.25 0.60L56.62 0.60ZM58.93 3.67L59.92 3.67L59.92 9.42C59.92 10.08 60.14 10.64 61.12 10.64C61.54 10.64 61.68 10.63 61.98 10.61L61.98 10.18L61.29 10.18C60.63 10.18 60.40 10.00 60.40 9.32L60.40 3.67L61.94 3.67L61.94 3.28L60.40 3.28L60.40 1.23L59.92 1.23L59.92 3.28L58.93 3.28ZM63.03 3.67L64.02 3.67L64.02 9.42C64.02 10.08 64.25 10.64 65.23 10.64C65.65 10.64 65.79 10.63 66.08 10.61L66.08 10.18L65.39 10.18C64.74 10.18 64.50 10.00 64.50 9.32L64.50 3.67L66.04 3.67L66.04 3.28L64.50 3.28L64.50 1.23L64.02 1.23L64.02 3.28L63.03 3.28ZM68.04 10.50L68.53 10.50L68.53 3.28L68.04 3.28ZM67.97 1.39L68.60 1.39L68.60 0.60L67.97 0.60ZM75.74 8.58C75.74 7.10 74.48 6.83 73.25 6.54C71.96 6.23 71.16 5.87 71.16 4.89C71.16 4.02 71.89 3.56 73.07 3.56C74.23 3.56 74.86 3.99 75.11 4.87L75.59 4.83C75.28 3.75 74.59 3.14 73.08 3.14C71.43 3.14 70.69 3.89 70.69 4.93C70.69 6.29 71.79 6.68 72.97 6.94C74.37 7.27 75.28 7.55 75.28 8.61C75.28 9.70 74.51 10.23 73.12 10.23C71.83 10.23 71.15 9.72 70.87 8.76L70.42 8.86C70.71 10.09 71.69 10.64 73.09 10.64C74.80 10.64 75.74 9.91 75.74 8.58ZM80.74 3.71L80.74 3.22L80.51 3.22C79.46 3.22 78.64 4.00 78.40 4.98C78.41 4.30 78.39 3.77 78.37 3.28L77.91 3.28C77.92 3.79 77.94 4.51 77.94 5.03L77.94 10.50L78.43 10.50L78.43 6.06C78.43 5.01 79.14 3.71 80.47 3.71ZM82.63 10.50L83.12 10.50L83.12 3.28L82.63 3.28ZM82.56 1.39L83.19 1.39L83.19 0.60L82.56 0.60ZM91.56 6.80C91.56 4.19 90.47 3.14 88.77 3.14C87.30 3.14 86.52 3.98 86.28 4.93C86.28 4.79 86.31 4.59 86.31 4.28L86.31-0.24L85.83-0.24L85.83 9.07C85.83 9.58 85.82 10.19 85.78 10.50L86.25 10.50C86.28 10.21 86.30 9.24 86.30 8.79C86.66 10.15 87.67 10.64 88.70 10.64C90.51 10.64 91.56 9.60 91.56 6.80ZM91.06 6.82C91.06 9.39 90.12 10.22 88.66 10.22C87.14 10.22 86.31 9.14 86.31 6.78C86.31 4.63 87.01 3.57 88.72 3.57C90.13 3.57 91.06 4.47 91.06 6.82ZM98.77 6.82C98.77 9.32 97.80 10.23 96.26 10.23C94.79 10.23 93.76 9.32 93.76 6.83C93.76 4.51 94.71 3.54 96.28 3.54C97.93 3.54 98.77 4.48 98.77 6.82ZM99.30 6.82C99.30 4.26 98.27 3.14 96.28 3.14C94.39 3.14 93.24 4.26 93.24 6.83C93.24 9.62 94.51 10.64 96.28 10.64C98.04 10.64 99.30 9.69 99.30 6.82ZM106.51 6.82C106.51 9.32 105.55 10.23 104.01 10.23C102.54 10.23 101.50 9.32 101.50 6.83C101.50 4.51 102.45 3.54 104.02 3.54C105.67 3.54 106.51 4.48 106.51 6.82ZM107.04 6.82C107.04 4.26 106.01 3.14 104.02 3.14C102.13 3.14 100.98 4.26 100.98 6.83C100.98 9.62 102.26 10.64 104.02 10.64C105.78 10.64 107.04 9.69 107.04 6.82ZM114.07 10.50L114.55 10.50L114.55 5.60C114.55 3.72 113.54 3.14 112.20 3.14C110.88 3.14 110.03 3.98 109.77 5.07L109.75 3.28L109.30 3.28C109.33 4.07 109.33 4.42 109.33 5.03L109.33 10.50L109.80 10.50L109.80 6.43C109.80 4.55 110.80 3.56 112.10 3.56C113.22 3.56 114.07 4.05 114.07 5.66ZM119.36 10.63C120.89 10.63 121.62 9.58 121.90 8.58L121.88 8.81L121.88 10.82C121.88 12.54 121.03 13.30 119.46 13.30C118.23 13.30 117.60 12.80 117.38 12.03L116.90 12.11C117.11 12.96 117.84 13.71 119.48 13.71C121.37 13.71 122.36 12.80 122.36 10.82L122.36 4.63L122.40 3.28L121.91 3.28L121.88 4.93C121.58 3.74 120.69 3.14 119.41 3.14C117.50 3.14 116.65 4.42 116.65 6.83C116.65 9.38 117.43 10.63 119.36 10.63ZM121.88 6.76C121.88 9.13 120.89 10.21 119.49 10.21C117.84 10.21 117.14 9.20 117.14 6.82C117.14 4.55 117.92 3.54 119.48 3.54C121.16 3.54 121.88 4.68 121.88 6.76ZM124.89 3.28L124.42 3.28L124.42 8.20C124.42 9.95 125.16 10.64 126.67 10.64C128.21 10.64 128.93 9.73 129.28 8.82L129.30 10.50L129.77 10.50L129.74 9.00L129.74 3.28L129.26 3.28L129.26 7.50C129.26 9.21 128.21 10.25 126.77 10.25C125.55 10.25 124.89 9.70 124.89 8.13ZM132.23 10.50L132.71 10.50L132.71-0.24L132.23-0.24Z"></path></g><defs data-v-fde0c5aa=""><!----></defs><g data-v-fde0c5aa="" id="22f880d2-8bcc-40a2-b040-bdce9de77ab9" stroke="none" fill="#6979D1" transform="matrix(0.8361284077572141,0,0,0.8361284077572141,108.18850977989392,85.35565510167275)"><path d="M75.9 69.7l-25.5 9.8-24.6-9.8V48c0-.6-.3-1.2-.9-1.5L7.5 36.9l-.1 3 43.7-19.7h-1.4l41.9 19.2v28.7c0 .9.7 1.7 1.7 1.7.9 0 1.7-.7 1.7-1.7V38.4c0-.7-.4-1.2-1-1.5L51.1 17.2c-.4-.2-.9-.2-1.4 0L6 36.9c-1.3.6-1.3 2.3-.1 3l17.5 9.6-.9-1.5v22.8c0 .7.4 1.3 1.1 1.6l26.3 10.5c.4.2.8.2 1.2 0l27.1-10.5c.6-.2 1.1-.9 1.1-1.6V48c0-1.2-1.2-2-2.3-1.6L50.5 56.8l-13.8-5.9c-.8-.4-1.8 0-2.2.9s0 1.8.9 2.2l14.4 6.1c.4.2.9.2 1.3 0L76 50.9"></path></g><!----></svg>